Yakitate!! Ja-pan (τä╝πüìπüƒπüª!! πé╕πâúπü▒πéô?, meaning "Freshly Baked!! Ja-pan", the "pan" also meaning "bread" in Japanese) is a manga, authored by Takashi Hashiguchi, serialized in Shogakukan's Sh┼ìnen Sunday, which has been adapted into a television anime series by Sunrise. The manga has spanned 25 tank┼ìbon volumes, as of January, 2007, while the weekly serialization of the manga has ended as of January 10, 2007. The anime series, broadcast on TV Tokyo and other local stations from October 2004 to March 2006, spanned a total of 69 episodes. The series won the 2003 Shogakukan Manga Award for best sh┼ìnen manga


Video
ID : 0
Format : MPEG-4 Visual
Format profile : AdvancedSimple@L5
Format settings, BVOP : Yes
Format settings, QPel : No
Format settings, GMC : No warppoints
Format settings, Matrix : Default (H.263)
Codec ID : XVID
Codec ID/Hint : XviD
Duration : 24mn 54s
Bit rate : 841 Kbps
Width : 640 pixels
Height : 480 pixels
Display aspect ratio : 4:3
Frame rate : 23.976 fps
Resolution : 24 bits
Colorimetry : 4:2:0
Scan type : Progressive
Bits/(Pixel*Frame) : 0.114
Stream size : 150 MiB (86%)
Writing library : XviD 1.0.0 (UTC 2004-05-09)

Audio
ID : 1
Format : MPEG Audio
Format version : Version 1
Format profile : Layer 3
Codec ID : 55
Codec ID/Hint : MP3
Duration : 24mn 54s
Bit rate mode : Constant
Bit rate : 128 Kbps
Channel(s) : 2 channels
Sampling rate : 48.0 KHz
Resolution : 16 bits
Stream size : 22.8 MiB (13%)
Alignment : Aligned on interleaves
Interleave, duration : 42 ms (1.00 video frame)
Interleave, preload duration : 480 m